<svg viewBox="0 0 8 8" xmlns="http://www.w3.org/2000/svg">
<path d="M6.87552 1.61512H1.12448C1.07025 1.61518 1.01827 1.63676 0.979931 1.67511C0.941595 1.71346 0.920041 1.76545 0.919998 1.81968V2.2312C0.919998 2.25016 0.940558 2.27192 0.957358 2.28072L3.98024 4.00736C3.98798 4.01179 3.99676 4.01408 4.00568 4.014C4.01479 4.01403 4.02375 4.01159 4.0316 4.00696L6.96312 2.2824C6.9796 2.2732 7.02328 2.24888 7.03968 2.23768C7.05952 2.22416 7.08 2.21192 7.08 2.18768V1.8196C7.07993 1.76539 7.05837 1.71341 7.02004 1.67508C6.9817 1.63675 6.92973 1.61518 6.87552 1.61512V1.61512Z" fill="black"/>
<path d="M7.05448 2.85168C7.04661 2.84719 7.0377 2.84486 7.02864 2.84491C7.01958 2.84497 7.0107 2.84741 7.00288 2.852L5.34392 3.82808C5.33731 3.83193 5.33165 3.83722 5.32737 3.84356C5.32308 3.8499 5.32028 3.85712 5.31916 3.86469C5.31805 3.87226 5.31865 3.87998 5.32093 3.88729C5.32321 3.89459 5.3271 3.90129 5.33232 3.90688L6.99152 5.69544C6.99628 5.7006 7.00205 5.70472 7.00848 5.70753C7.01492 5.71034 7.02186 5.71178 7.02888 5.71176C7.04243 5.71174 7.05542 5.70635 7.06501 5.69676C7.07459 5.68718 7.07998 5.67419 7.08 5.66064V2.89608C7.08004 2.88709 7.0777 2.87824 7.07321 2.87045C7.06873 2.86265 7.06227 2.85618 7.05448 2.85168Z" fill="black"/>
<path d="M4.86584 4.15584C4.85797 4.14726 4.84739 4.14165 4.83587 4.13993C4.82436 4.13821 4.8126 4.1405 4.80256 4.1464L4.1376 4.53768C4.09864 4.56019 4.0545 4.57218 4.0095 4.57248C3.96451 4.57277 3.92021 4.56136 3.88096 4.53936L3.29576 4.20504C3.28632 4.19966 3.2754 4.19743 3.2646 4.19866C3.2538 4.1999 3.24367 4.20454 3.23568 4.21192L1.01344 6.2732C1.00762 6.27865 1.00314 6.28538 1.00038 6.29286C0.997617 6.30034 0.996639 6.30836 0.997524 6.31629C0.99841 6.32422 1.00114 6.33183 1.00548 6.33851C1.00983 6.3452 1.01568 6.35078 1.02256 6.3548C1.05712 6.37512 1.09048 6.3848 1.1244 6.3848H6.81664C6.8266 6.38482 6.83635 6.38191 6.84467 6.37644C6.85299 6.37096 6.85952 6.36316 6.86344 6.354C6.86743 6.3449 6.86867 6.33482 6.86699 6.32503C6.86531 6.31523 6.8608 6.30614 6.854 6.29888L4.86584 4.15584Z" fill="black"/>
<path d="M2.74672 3.96808C2.7526 3.96264 2.75713 3.95589 2.75992 3.94838C2.76272 3.94086 2.76371 3.9328 2.76282 3.92483C2.76192 3.91687 2.75916 3.90922 2.75477 3.90252C2.75038 3.89582 2.74447 3.89024 2.73752 3.88624L0.996239 2.89168C0.988468 2.88727 0.979675 2.88497 0.970739 2.88503C0.961803 2.88508 0.953037 2.88748 0.945318 2.89198C0.9376 2.89648 0.931199 2.90293 0.926756 2.91069C0.922312 2.91844 0.919982 2.92722 0.919999 2.93616V5.54576C0.919943 5.55573 0.92281 5.56549 0.928246 5.57384C0.933683 5.5822 0.941449 5.58877 0.950585 5.59276C0.959721 5.59674 0.969824 5.59796 0.979645 5.59626C0.989466 5.59456 0.998573 5.59002 1.00584 5.5832L2.74672 3.96808V3.96808Z" fill="black"/>
</svg>
