<svg viewBox="0 0 8 8" xmlns="http://www.w3.org/2000/svg">
<path d="M6 1H2C1.43333 1 1 1.43333 1 2V6C1 6.56667 1.43333 7 2 7H6C6.56667 7 7 6.56667 7 6V2C7 1.43333 6.56667 1 6 1ZM4 3C4.56667 3 5 3.43333 5 4C5 4.56667 4.56667 5 4 5C3.43333 5 3 4.56667 3 4C3 3.43333 3.43333 3 4 3ZM5.26667 2.33333C5.26667 2.1 5.46667 1.93333 5.66667 1.93333C5.86667 1.93333 6.06667 2.13333 6.06667 2.33333C6.06667 2.53333 5.9 2.73333 5.66667 2.73333C5.43333 2.73333 5.26667 2.56667 5.26667 2.33333V2.33333ZM6 6.33333H2C1.8 6.33333 1.66667 6.2 1.66667 6V4H2.33333C2.33333 4.93333 3.06667 5.66667 4 5.66667C4.93333 5.66667 5.66667 4.93333 5.66667 4H6.33333V6C6.33333 6.2 6.2 6.33333 6 6.33333Z" fill="black"/>
</svg>
