<svg viewBox="0 0 93 21" fill="none" xmlns="http://www.w3.org/2000/svg">
<path d="M11.3203 17H9.62402V11.085H3.17285V17H1.48535V4.20312H3.17285V9.70508H9.62402V4.20312H11.3203V17ZM21.5508 11.085H16.0049V15.6201H22.4473V17H14.3174V4.20312H22.3594V5.5918H16.0049V9.70508H21.5508V11.085ZM26.2441 15.6201H32.3086V17H24.5479V4.20312H26.2441V15.6201ZM36.0439 17H34.3564V4.20312H36.0439V17ZM46.3623 13.6602H41.001L39.7969 17H38.0566L42.9434 4.20312H44.4199L49.3154 17H47.584L46.3623 13.6602ZM41.5107 12.2715H45.8613L43.6816 6.28613L41.5107 12.2715ZM54.8086 11.2959C53.3613 10.8799 52.3066 10.3701 51.6445 9.7666C50.9883 9.15723 50.6602 8.40723 50.6602 7.5166C50.6602 6.50879 51.0615 5.67676 51.8643 5.02051C52.6729 4.3584 53.7217 4.02734 55.0107 4.02734C55.8896 4.02734 56.6719 4.19727 57.3574 4.53711C58.0488 4.87695 58.582 5.3457 58.957 5.94336C59.3379 6.54102 59.5283 7.19434 59.5283 7.90332H57.832C57.832 7.12988 57.5859 6.52344 57.0938 6.08398C56.6016 5.63867 55.9072 5.41602 55.0107 5.41602C54.1787 5.41602 53.5283 5.60059 53.0596 5.96973C52.5967 6.33301 52.3652 6.83984 52.3652 7.49023C52.3652 8.01172 52.585 8.4541 53.0244 8.81738C53.4697 9.1748 54.2227 9.50293 55.2832 9.80176C56.3496 10.1006 57.1816 10.4316 57.7793 10.7949C58.3828 11.1523 58.8281 11.5713 59.1152 12.0518C59.4082 12.5322 59.5547 13.0977 59.5547 13.748C59.5547 14.7852 59.1504 15.6172 58.3418 16.2441C57.5332 16.8652 56.4521 17.1758 55.0986 17.1758C54.2197 17.1758 53.3994 17.0088 52.6377 16.6748C51.876 16.335 51.2871 15.8721 50.8711 15.2861C50.4609 14.7002 50.2559 14.0352 50.2559 13.291H51.9521C51.9521 14.0645 52.2363 14.6768 52.8047 15.1279C53.3789 15.5732 54.1436 15.7959 55.0986 15.7959C55.9893 15.7959 56.6719 15.6143 57.1465 15.251C57.6211 14.8877 57.8584 14.3926 57.8584 13.7656C57.8584 13.1387 57.6387 12.6553 57.1992 12.3154C56.7598 11.9697 55.9629 11.6299 54.8086 11.2959Z" fill="black"/>
<line x1="64.4" y1="2" x2="64.4" y2="19" stroke="black" stroke-width="0.8"/>
<path d="M74.3706 11H73.3071V5.86279L71.7383 6.39893V5.49805L74.2344 4.57959H74.3706V11ZM80.7646 8.30615C80.7646 9.22607 80.5918 9.92041 80.2461 10.3892C79.9033 10.855 79.3804 11.0879 78.6772 11.0879C77.9858 11.0879 77.4644 10.8608 77.1128 10.4067C76.7642 9.94971 76.5854 9.27441 76.5767 8.38086V7.27344C76.5767 6.35352 76.748 5.66357 77.0908 5.20361C77.4365 4.74365 77.9624 4.51367 78.6685 4.51367C79.3687 4.51367 79.8901 4.73779 80.2329 5.18604C80.5786 5.63428 80.7559 6.30518 80.7646 7.19873V8.30615ZM79.6968 7.11084C79.6968 6.51025 79.6147 6.0708 79.4507 5.79248C79.2866 5.51123 79.0259 5.37061 78.6685 5.37061C78.3198 5.37061 78.0635 5.50391 77.8994 5.77051C77.7354 6.03418 77.6489 6.44727 77.6401 7.00977V8.45996C77.6401 9.05762 77.7236 9.50293 77.8906 9.7959C78.0576 10.0889 78.3198 10.2354 78.6772 10.2354C79.02 10.2354 79.2734 10.1006 79.4375 9.83105C79.6016 9.55859 79.688 9.13379 79.6968 8.55664V7.11084ZM85.8799 8.30615C85.8799 9.22607 85.707 9.92041 85.3613 10.3892C85.0186 10.855 84.4956 11.0879 83.7925 11.0879C83.1011 11.0879 82.5796 10.8608 82.228 10.4067C81.8794 9.94971 81.7007 9.27441 81.6919 8.38086V7.27344C81.6919 6.35352 81.8633 5.66357 82.2061 5.20361C82.5518 4.74365 83.0776 4.51367 83.7837 4.51367C84.4839 4.51367 85.0054 4.73779 85.3481 5.18604C85.6938 5.63428 85.8711 6.30518 85.8799 7.19873V8.30615ZM84.812 7.11084C84.812 6.51025 84.73 6.0708 84.5659 5.79248C84.4019 5.51123 84.1411 5.37061 83.7837 5.37061C83.4351 5.37061 83.1787 5.50391 83.0146 5.77051C82.8506 6.03418 82.7642 6.44727 82.7554 7.00977V8.45996C82.7554 9.05762 82.8389 9.50293 83.0059 9.7959C83.1729 10.0889 83.4351 10.2354 83.7925 10.2354C84.1353 10.2354 84.3887 10.1006 84.5527 9.83105C84.7168 9.55859 84.8032 9.13379 84.812 8.55664V7.11084ZM86.7808 5.83203C86.7808 5.44531 86.9053 5.12891 87.1543 4.88281C87.4033 4.63379 87.73 4.50928 88.1343 4.50928C88.5444 4.50928 88.8726 4.63379 89.1187 4.88281C89.3677 5.12891 89.4922 5.45264 89.4922 5.854V6.17041C89.4922 6.5542 89.3677 6.86914 89.1187 7.11523C88.8726 7.36133 88.5474 7.48438 88.1431 7.48438C87.7476 7.48438 87.4209 7.36426 87.1631 7.12402C86.9082 6.88086 86.7808 6.5542 86.7808 6.14404V5.83203ZM87.5278 6.17041C87.5278 6.37256 87.5835 6.53662 87.6948 6.6626C87.8091 6.78564 87.9585 6.84717 88.1431 6.84717C88.3247 6.84717 88.4712 6.78564 88.5825 6.6626C88.6938 6.53662 88.7495 6.3667 88.7495 6.15283V5.83203C88.7495 5.62988 88.6924 5.46582 88.5781 5.33984C88.4668 5.21387 88.3188 5.15088 88.1343 5.15088C87.9497 5.15088 87.8018 5.21533 87.6904 5.34424C87.582 5.47021 87.5278 5.63721 87.5278 5.84521V6.17041ZM89.8569 9.43115C89.8569 9.03857 89.9844 8.7207 90.2393 8.47754C90.4941 8.23438 90.8193 8.11279 91.2148 8.11279C91.6133 8.11279 91.9385 8.23438 92.1904 8.47754C92.4453 8.7207 92.5728 9.04883 92.5728 9.46191V9.77393C92.5728 10.1548 92.4497 10.4697 92.2036 10.7188C91.9604 10.9648 91.6338 11.0879 91.2236 11.0879C90.8135 11.0879 90.4824 10.9663 90.2305 10.7231C89.9814 10.4771 89.8569 10.1533 89.8569 9.75195V9.43115ZM90.604 9.77393C90.604 9.97314 90.6611 10.1372 90.7754 10.2661C90.8926 10.3921 91.042 10.4551 91.2236 10.4551C91.4111 10.4551 91.5576 10.395 91.6631 10.2749C91.7715 10.1519 91.8257 9.98047 91.8257 9.76074V9.43115C91.8257 9.22607 91.7686 9.06201 91.6543 8.93896C91.54 8.81592 91.3936 8.75439 91.2148 8.75439C91.0332 8.75439 90.8853 8.81592 90.771 8.93896C90.6597 9.06201 90.604 9.23193 90.604 9.44873V9.77393ZM88.3628 10.521L87.8135 10.2046L90.938 5.20361L91.4873 5.52002L88.3628 10.521Z" fill="black"/>
<path d="M72.8813 15.6084V17H72.4126V13.4453H73.7236C74.1126 13.4453 74.417 13.5446 74.6367 13.7432C74.8581 13.9417 74.9688 14.2046 74.9688 14.5317C74.9688 14.8768 74.8605 15.1429 74.644 15.3301C74.4292 15.5156 74.1208 15.6084 73.7188 15.6084H72.8813ZM72.8813 15.2251H73.7236C73.9743 15.2251 74.1663 15.1665 74.2998 15.0493C74.4333 14.9305 74.5 14.7596 74.5 14.5366C74.5 14.325 74.4333 14.1558 74.2998 14.0288C74.1663 13.9019 73.9832 13.8359 73.7505 13.8311H72.8813V15.2251ZM77.127 16.7388C76.9512 16.9455 76.6932 17.0488 76.353 17.0488C76.0715 17.0488 75.8566 16.9674 75.7085 16.8047C75.562 16.6403 75.488 16.3978 75.4863 16.0771V14.3584H75.938V16.0649C75.938 16.4653 76.1007 16.6655 76.4263 16.6655C76.7713 16.6655 77.0008 16.5369 77.1147 16.2798V14.3584H77.5664V17H77.1367L77.127 16.7388ZM79.5317 14.7637C79.4634 14.7523 79.3893 14.7466 79.3096 14.7466C79.0133 14.7466 78.8123 14.8727 78.7065 15.125V17H78.2549V14.3584H78.6943L78.7017 14.6636C78.8498 14.4276 79.0597 14.3096 79.3315 14.3096C79.4194 14.3096 79.4862 14.321 79.5317 14.3438V14.7637ZM80.9966 17.0488C80.6385 17.0488 80.3472 16.9316 80.1226 16.6973C79.8979 16.4613 79.7856 16.1463 79.7856 15.7524V15.6694C79.7856 15.4074 79.8353 15.1738 79.9346 14.9688C80.0355 14.762 80.1755 14.6009 80.3545 14.4854C80.5352 14.3682 80.7305 14.3096 80.9404 14.3096C81.2839 14.3096 81.5508 14.4227 81.7412 14.6489C81.9316 14.8752 82.0269 15.1991 82.0269 15.6206V15.8086H80.2373C80.2438 16.069 80.3195 16.2798 80.4644 16.4409C80.6108 16.6004 80.7964 16.6802 81.021 16.6802C81.1805 16.6802 81.3156 16.6476 81.4263 16.5825C81.5369 16.5174 81.6338 16.4312 81.7168 16.3237L81.9927 16.5386C81.7713 16.8787 81.4393 17.0488 80.9966 17.0488ZM80.9404 14.6807C80.7581 14.6807 80.6051 14.7474 80.4814 14.8809C80.3577 15.0127 80.2812 15.1982 80.252 15.4375H81.5752V15.4033C81.5622 15.1738 81.5003 14.9964 81.3896 14.8711C81.279 14.7441 81.1292 14.6807 80.9404 14.6807ZM86.5972 15.3374C86.5972 15.6857 86.5386 15.9901 86.4214 16.2505C86.3042 16.5093 86.1382 16.707 85.9233 16.8438C85.7085 16.9805 85.4578 17.0488 85.1714 17.0488C84.8914 17.0488 84.6432 16.9805 84.4268 16.8438C84.2103 16.7054 84.0418 16.5093 83.9214 16.2554C83.8026 15.9998 83.7415 15.7044 83.7383 15.3691V15.1128C83.7383 14.771 83.7977 14.4691 83.9165 14.207C84.0353 13.945 84.203 13.7448 84.4194 13.6064C84.6375 13.4665 84.8866 13.3965 85.1665 13.3965C85.4513 13.3965 85.702 13.4657 85.9185 13.604C86.1366 13.7407 86.3042 13.9401 86.4214 14.2021C86.5386 14.4626 86.5972 14.7661 86.5972 15.1128V15.3374ZM86.1309 15.1079C86.1309 14.6864 86.0462 14.3633 85.877 14.1387C85.7077 13.9124 85.4709 13.7993 85.1665 13.7993C84.8703 13.7993 84.6367 13.9124 84.4658 14.1387C84.2965 14.3633 84.2095 14.6758 84.2046 15.0762V15.3374C84.2046 15.7459 84.29 16.0674 84.4609 16.3018C84.6335 16.5345 84.8703 16.6509 85.1714 16.6509C85.4741 16.6509 85.7085 16.541 85.8745 16.3213C86.0405 16.0999 86.126 15.7834 86.1309 15.3716V15.1079ZM87.7202 17H87.2686V14.3584H87.7202V17ZM87.2319 13.6577C87.2319 13.5845 87.2539 13.5226 87.2979 13.4722C87.3434 13.4217 87.4102 13.3965 87.498 13.3965C87.5859 13.3965 87.6527 13.4217 87.6982 13.4722C87.7438 13.5226 87.7666 13.5845 87.7666 13.6577C87.7666 13.731 87.7438 13.792 87.6982 13.8408C87.6527 13.8896 87.5859 13.9141 87.498 13.9141C87.4102 13.9141 87.3434 13.8896 87.2979 13.8408C87.2539 13.792 87.2319 13.731 87.2319 13.6577ZM88.936 17H88.4844V13.25H88.936V17ZM91.1992 16.2993C91.1992 16.1772 91.1528 16.0828 91.0601 16.0161C90.9689 15.9478 90.8086 15.8892 90.5791 15.8403C90.3512 15.7915 90.1698 15.7329 90.0347 15.6646C89.9012 15.5962 89.8019 15.5148 89.7368 15.4204C89.6733 15.326 89.6416 15.2137 89.6416 15.0835C89.6416 14.867 89.7327 14.6839 89.915 14.5342C90.099 14.3844 90.3333 14.3096 90.6182 14.3096C90.9176 14.3096 91.1602 14.3869 91.3457 14.5415C91.5329 14.6961 91.6265 14.8939 91.6265 15.1348H91.1724C91.1724 15.0111 91.1195 14.9045 91.0137 14.8149C90.9095 14.7254 90.7777 14.6807 90.6182 14.6807C90.4538 14.6807 90.3252 14.7165 90.2324 14.7881C90.1396 14.8597 90.0933 14.9533 90.0933 15.0688C90.0933 15.1779 90.1364 15.2601 90.2227 15.3154C90.3089 15.3708 90.4644 15.4237 90.689 15.4741C90.9152 15.5246 91.0983 15.5848 91.2383 15.6548C91.3783 15.7248 91.4816 15.8094 91.5483 15.9087C91.6167 16.0063 91.6509 16.126 91.6509 16.2676C91.6509 16.5036 91.5565 16.6932 91.3677 16.8364C91.1789 16.978 90.9339 17.0488 90.6328 17.0488C90.4212 17.0488 90.234 17.0114 90.0713 16.9365C89.9085 16.8617 89.7808 16.7575 89.688 16.624C89.5968 16.4889 89.5513 16.3433 89.5513 16.187H90.0029C90.0111 16.3384 90.0713 16.4588 90.1836 16.5483C90.2975 16.6362 90.4473 16.6802 90.6328 16.6802C90.8037 16.6802 90.9404 16.646 91.043 16.5776C91.1471 16.5076 91.1992 16.4149 91.1992 16.2993Z" fill="black"/>
</svg>
